# xmcd CD database file
# Copyright (C) 1996 Ti Kan
#
# Track frame offsets:
#  182
#  10730
#  21115
#  35172
#  47555
#  62195
#  72295
#  84437
#  93982
#  106195
#  120557
#  132517
#  146730
#  155862
#  171825
#  182600
#
# Disc length: 2582 seconds
#
# Revision: 1
# Processed by: cddbd v1.4b41PL1 Copyright (c) Steve Scherf et al.
# Submitted via: CDWizzard Release:4.12
#
DISCID=db0a1410
DTITLE=Memphis Slim - Rockin' The Blues
DYEAR=1900
DGENRE=
TTITLE0=Gotta Find My Baby
TTITLE1=The Comeback
TTITLE2=Messin' Around
TTITLE3=Sassy Mae
TTITLE4=Lend Me Your Love
TTITLE5=Guitar Cha Cha
TTITLE6=Stroll On Little Girl
TTITLE7=Rockin' The House
TTITLE8=Wish Me Well
TTITLE9=Blue And Lonesome
TTITLE10=My Gal Keeps Me Crying
TTITLE11=Slim's Blues
TTITLE12=Steppin' Out
TTITLE13=Mother Earth
TTITLE14=What's The Matter
TTITLE15=This Time I'm Through
EXTD=CD BM 21\n\nSubmitted 6/5/97\n[Jmccoy@efn.org]\n
EXTT0=
EXTT1=
EXTT2=
EXTT3=
EXTT4=
EXTT5=
EXTT6=
EXTT7=
EXTT8=
EXTT9=
EXTT10=
EXTT11=
EXTT12=
EXTT13=
EXTT14=
EXTT15=
PLAYORDER=
